{"accessors":[{"bufferView":0,"byteOffset":0,"componentType":5126,"count":254,"max":[0.005,0.0049984459100040814,0.0075],"min":[-0.005,-0.004998445910004082,-0.0035],"type":"VEC3"},{"bufferView":0,"byteOffset":3048,"componentType":5126,"count":3044,"max":[0.005,0.0049984459100040814,-0.0035],"min":[-0.005,-0.004998445910004082,-0.0075],"type":"VEC3"},{"bufferView":0,"byteOffset":39576,"componentType":5126,"count":252,"max":[0.005,0.0049984459100040814,0.0075000000000000015],"min":[-0.005,-0.004998445910004082,0.007499999999999999],"type":"VEC3"},{"bufferView":0,"byteOffset":42600,"componentType":5126,"count":252,"max":[0.0010000000000000002,0.0009996891820008163,-0.0075],"min":[-0.001,-0.0009996891820008165,-0.0075],"type":"VEC3"},{"bufferView":0,"byteOffset":45624,"componentType":5126,"count":254,"max":[0.002500000000000001,0.0024992229550020403,0.0075],"min":[-0.002499999999999999,-0.002499222955002042,0.004999999999999998],"type":"VEC3"},{"bufferView":0,"byteOffset":48672,"componentType":5126,"count":254,"max":[0.0005000000000000009,0.0004998445910004077,-0.0045000000000000005],"min":[-0.0004999999999999991,-0.0004998445910004086,-0.0075],"type":"VEC3"},{"bufferView":0,"byteOffset":51720,"componentType":5126,"count":126,"max":[0.002500000000000001,0.00249922295500204,0.004999999999999998],"min":[-0.002499999999999999,-0.002499222955002042,0.004999999999999998],"type":"VEC3"},{"bufferView":0,"byteOffset":53232,"componentType":5126,"count":126,"max":[0.0005000000000000009,0.0004998445910004077,-0.0045000000000000005],"min":[-0.0004999999999999991,-0.0004998445910004086,-0.0045000000000000005],"type":"VEC3"},{"bufferView":1,"byteOffset":0,"componentType":5126,"count":254,"type":"VEC3"},{"bufferView":1,"byteOffset":3048,"componentType":5126,"count":3044,"type":"VEC3"},{"bufferView":1,"byteOffset":39576,"componentType":5126,"count":252,"type":"VEC3"},{"bufferView":1,"byteOffset":42600,"componentType":5126,"count":252,"type":"VEC3"},{"bufferView":1,"byteOffset":45624,"componentType":5126,"count":254,"type":"VEC3"},{"bufferView":1,"byteOffset":48672,"componentType":5126,"count":254,"type":"VEC3"},{"bufferView":1,"byteOffset":51720,"componentType":5126,"count":126,"type":"VEC3"},{"bufferView":1,"byteOffset":53232,"componentType":5126,"count":126,"type":"VEC3"},{"bufferView":2,"byteOffset":0,"componentType":5123,"count":756,"type":"SCALAR"},{"bufferView":2,"byteOffset":1512,"componentType":5123,"count":17310,"type":"SCALAR"},{"bufferView":2,"byteOffset":36132,"componentType":5123,"count":756,"type":"SCALAR"},{"bufferView":2,"byteOffset":37644,"componentType":5123,"count":756,"type":"SCALAR"},{"bufferView":2,"byteOffset":39156,"componentType":5123,"count":756,"type":"SCALAR"},{"bufferView":2,"byteOffset":40668,"componentType":5123,"count":756,"type":"SCALAR"},{"bufferView":2,"byteOffset":42180,"componentType":5123,"count":372,"type":"SCALAR"},{"bufferView":2,"byteOffset":42924,"componentType":5123,"count":372,"type":"SCALAR"}],"asset":{"generator":"Open CASCADE Technology 7.8 [dev.opencascade.org]","version":"2.0"},"bufferViews":[{"buffer":0,"byteLength":54744,"byteOffset":0,"byteStride":12,"target":34962},{"buffer":0,"byteLength":54744,"byteOffset":54744,"byteStride":12,"target":34962},{"buffer":0,"byteLength":43668,"byteOffset":109488,"target":34963}],"buffers":[{"byteLength":153156,"uri":"auto_screwdriver.bin"}],"meshes":[{"name":"COMPOUND","primitives":[{"attributes":{"NORMAL":8,"POSITION":0},"indices":16,"mode":4},{"attributes":{"NORMAL":9,"POSITION":1},"indices":17,"mode":4},{"attributes":{"NORMAL":10,"POSITION":2},"indices":18,"mode":4},{"attributes":{"NORMAL":11,"POSITION":3},"indices":19,"mode":4},{"attributes":{"NORMAL":12,"POSITION":4},"indices":20,"mode":4},{"attributes":{"NORMAL":13,"POSITION":5},"indices":21,"mode":4},{"attributes":{"NORMAL":14,"POSITION":6},"indices":22,"mode":4},{"attributes":{"NORMAL":15,"POSITION":7},"indices":23,"mode":4}]}],"nodes":[{"rotation":[-0.7071067811865475,0.0,0.0,0.7071067811865475],"mesh":0,"name":"=>[0:1:1:2]"}],"scene":0,"scenes":[{"nodes":[0]}]}