{"accessors":[{"bufferView":0,"byteOffset":0,"componentType":5126,"count":254,"max":[0.0025,0.002499222955002041,0.012],"min":[-0.0025,-0.002499222955002041,0.007],"type":"VEC3"},{"bufferView":0,"byteOffset":3048,"componentType":5126,"count":252,"max":[0.006,0.0059981350920048975,0.007000000000000001],"min":[-0.006,-0.005998135092004899,0.006999999999999999],"type":"VEC3"},{"bufferView":0,"byteOffset":6072,"componentType":5126,"count":252,"max":[0.0025,0.002499222955002041,0.012],"min":[-0.0025,-0.002499222955002041,0.012],"type":"VEC3"},{"bufferView":0,"byteOffset":9096,"componentType":5126,"count":254,"max":[0.006,0.0059981350920048975,0.007],"min":[-0.006,-0.005998135092004899,-0.007],"type":"VEC3"},{"bufferView":0,"byteOffset":12144,"componentType":5126,"count":254,"max":[0.0006,0.0005998135092004898,0.012],"min":[-0.0006,-0.0005998135092004899,-0.004],"type":"VEC3"},{"bufferView":0,"byteOffset":15192,"componentType":5126,"count":126,"max":[0.006,0.0059981350920048975,-0.007],"min":[-0.006,-0.005998135092004899,-0.007],"type":"VEC3"},{"bufferView":0,"byteOffset":16704,"componentType":5126,"count":126,"max":[0.0006,0.0005998135092004898,-0.004],"min":[-0.0006,-0.0005998135092004899,-0.004],"type":"VEC3"},{"bufferView":1,"byteOffset":0,"componentType":5126,"count":254,"type":"VEC3"},{"bufferView":1,"byteOffset":3048,"componentType":5126,"count":252,"type":"VEC3"},{"bufferView":1,"byteOffset":6072,"componentType":5126,"count":252,"type":"VEC3"},{"bufferView":1,"byteOffset":9096,"componentType":5126,"count":254,"type":"VEC3"},{"bufferView":1,"byteOffset":12144,"componentType":5126,"count":254,"type":"VEC3"},{"bufferView":1,"byteOffset":15192,"componentType":5126,"count":126,"type":"VEC3"},{"bufferView":1,"byteOffset":16704,"componentType":5126,"count":126,"type":"VEC3"},{"bufferView":2,"byteOffset":0,"componentType":5123,"count":756,"type":"SCALAR"},{"bufferView":2,"byteOffset":1512,"componentType":5123,"count":756,"type":"SCALAR"},{"bufferView":2,"byteOffset":3024,"componentType":5123,"count":756,"type":"SCALAR"},{"bufferView":2,"byteOffset":4536,"componentType":5123,"count":756,"type":"SCALAR"},{"bufferView":2,"byteOffset":6048,"componentType":5123,"count":756,"type":"SCALAR"},{"bufferView":2,"byteOffset":7560,"componentType":5123,"count":372,"type":"SCALAR"},{"bufferView":2,"byteOffset":8304,"componentType":5123,"count":372,"type":"SCALAR"}],"asset":{"generator":"Open CASCADE Technology 7.8 [dev.opencascade.org]","version":"2.0"},"bufferViews":[{"buffer":0,"byteLength":18216,"byteOffset":0,"byteStride":12,"target":34962},{"buffer":0,"byteLength":18216,"byteOffset":18216,"byteStride":12,"target":34962},{"buffer":0,"byteLength":9048,"byteOffset":36432,"target":34963}],"buffers":[{"byteLength":45480,"uri":"round_laptop_male.bin"}],"meshes":[{"name":"COMPOUND","primitives":[{"attributes":{"NORMAL":7,"POSITION":0},"indices":14,"mode":4},{"attributes":{"NORMAL":8,"POSITION":1},"indices":15,"mode":4},{"attributes":{"NORMAL":9,"POSITION":2},"indices":16,"mode":4},{"attributes":{"NORMAL":10,"POSITION":3},"indices":17,"mode":4},{"attributes":{"NORMAL":11,"POSITION":4},"indices":18,"mode":4},{"attributes":{"NORMAL":12,"POSITION":5},"indices":19,"mode":4},{"attributes":{"NORMAL":13,"POSITION":6},"indices":20,"mode":4}]}],"nodes":[{"rotation":[-0.7071067811865475,0.0,0.0,0.7071067811865475],"mesh":0,"name":"=>[0:1:1:2]"}],"scene":0,"scenes":[{"nodes":[0]}]}